inDegrees=no
num_controls=7
num_derivatives=13
num_iterations=53
num_multipliers=7
num_parameters=0
num_slacks=7
num_states=26
objective=0.449567
objective_accelerations=0.031201
objective_balance=0.001972
objective_effort=0.016337
objective_height=0.394377
objective_ligament=0.005680
solver_duration=721.567673
status=Solve_Succeeded
success=true
DataType=double
version=3
OpenSimVersion=4.5
endheader
time	/jointset/ground_pelvis/pelvis_tilt/value	/jointset/ground_pelvis/pelvis_tx/value	/jointset/ground_pelvis/pelvis_ty/value	/jointset/hip_l/hip_flexion_l/value	/jointset/hip_l/hip_adduction_l/value	/jointset/hip_l/hip_rotation_l/value	/jointset/back/lumbar_extension/value	/jointset/patellofemoral_l/patellar_flexion_l/value	/jointset/knee_l/knee_flexion_l/value	/jointset/knee_l/knee_adduction_l/value	/jointset/knee_l/knee_rotation_l/value	/jointset/ankle_l/ankle_angle_l/value	/jointset/subtalar_l/subtalar_angle_l/value	/jointset/ground_pelvis/pelvis_tilt/speed	/jointset/ground_pelvis/pelvis_tx/speed	/jointset/ground_pelvis/pelvis_ty/speed	/jointset/hip_l/hip_flexion_l/speed	/jointset/hip_l/hip_adduction_l/speed	/jointset/hip_l/hip_rotation_l/speed	/jointset/back/lumbar_extension/speed	/jointset/patellofemoral_l/patellar_flexion_l/speed	/jointset/knee_l/knee_flexion_l/speed	/jointset/knee_l/knee_adduction_l/speed	/jointset/knee_l/knee_rotation_l/speed	/jointset/ankle_l/ankle_angle_l/speed	/jointset/subtalar_l/subtalar_angle_l/speed	/forceset/tau_hip_flexion_l	/forceset/tau_hip_adduction_l	/forceset/tau_hip_rotation_l	/forceset/tau_knee_flexion_l	/forceset/tau_ankle_angle_l	/forceset/tau_subtalar_angle_l	/forceset/tau_lumbar_extension	lambda_cid13_p0	lambda_cid13_p1	lambda_cid13_p2	lambda_cid13_p3	lambda_cid13_p4	lambda_cid13_p5	lambda_cid14_p0	/jointset/ground_pelvis/pelvis_tilt/accel	/jointset/ground_pelvis/pelvis_tx/accel	/jointset/ground_pelvis/pelvis_ty/accel	/jointset/hip_l/hip_flexion_l/accel	/jointset/hip_l/hip_adduction_l/accel	/jointset/hip_l/hip_rotation_l/accel	/jointset/back/lumbar_extension/accel	/jointset/patellofemoral_l/patellar_flexion_l/accel	/jointset/knee_l/knee_flexion_l/accel	/jointset/knee_l/knee_adduction_l/accel	/jointset/knee_l/knee_rotation_l/accel	/jointset/ankle_l/ankle_angle_l/accel	/jointset/subtalar_l/subtalar_angle_l/accel	gamma_cid13_p0	gamma_cid13_p1	gamma_cid13_p2	gamma_cid13_p3	gamma_cid13_p4	gamma_cid13_p5	gamma_cid14_p0
1.5	-0.1318119970743259	0.0736726407523239	0.8166616743277694	0.6425127887144639	-0.4422344710099248	-0.2582176779817453	-0.1989651928841556	0.7041639157340643	0.7041639157340943	-0.1644158707535687	-0.1441631606309741	0.2381187071467341	0.03816885194392884	0.0776808582309024	0.05618319892670408	0.3128655408062033	-1.19162393585189	0.2672316720697062	-0.6165553894040113	0.3458442148244368	-1.72080635082099	-1.720806350820945	-0.01244956096598283	0.1329399047958565	-0.7169956732903612	-0.09807439314084974	-0.05374057809474655	0.06049623057870698	-0.009986337595548416	-0.2478474455749077	0.0178215963159871	-0.004422711378718379	0.08572921042766278	-28.37333272703774	5.162386116967165	0.8129782464574226	-1.099159835571444	-532.5735099806726	-40.10956189969812	-29.64336013474468	-0.0494450018363987	0.2491927981586322	-0.296480470129755	-0.6408767154903188	0.5302995257027313	-0.1002624058772858	0.93775545860722	-1.404944124695129	-1.404944124695129	-0.04350684979037951	0.172837145345684	-0.5454851265586657	0.3585416300804393	1.283473350018573e-07	7.515481510539277e-07	-4.701884323845996e-07	1.31060274182114e-07	1.332472226691689e-07	5.721400265528076e-07	1.164735382867547e-07
1.51	-0.1310376368316843	0.07424692000463623	0.8197747780596223	0.6305659884043678	-0.4395362868893118	-0.2643880619111564	-0.1954604263548697	0.686888125100374	0.6868881251003777	-0.164543011424032	-0.1428264013626031	0.2309224274085724	0.03720565454901744	0.07719266377562424	0.05866955019938445	0.309685931330656	-1.197568594009313	0.2723739818863803	-0.6174348617615124	0.3550510108972023	-1.734095803715119	-1.734095803715097	-0.01298271089044673	0.1343838799978874	-0.722149664037642	-0.09454904156823785	-0.05143804859717713	0.05872787040506577	-0.009840487147613718	-0.2448097633127833	0.02029195148198913	-0.004898191619571658	0.08351029769677736	-27.48024941792815	5.129910993583191	0.9125089655734292	-1.479595946800908	-530.3379087328075	-40.22194851907364	-30.40043224445117	-0.04829847832531848	0.2479253336578162	-0.3390781663665411	-0.5461443971593417	0.5014789720872909	-0.06871275211556907	0.9034296618068056	-1.252570140055628	-1.252570140059049	-0.05872702079539812	0.1259190429240854	-0.4837336708279999	0.3518357571178516	1.042393539818962e-07	8.168420408656079e-07	-3.416450740283904e-07	1.575622115350498e-07	9.201540333813823e-08	5.409591812954803e-07	1.05927384751673e-07
1.52	-0.130268116895784	0.07484597657804262	0.8228540103006998	0.6185647647064321	-0.4367876232180478	-0.2705646251844342	-0.1918653342688169	0.6694871150840657	0.6694871150840638	-0.1646755851850346	-0.1414760540752424	0.2236779322385359	0.03627817143708477	0.07671279688228508	0.06113866314551852	0.3060912426511961	-1.202508613418358	0.2773275822005825	-0.617791258176189	0.3639093261777904	-1.745850227340603	-1.745850227340603	-0.01353617909575633	0.1356575086116149	-0.726638759665534	-0.0909315365449767	-0.04913551909972957	0.05695951023133845	-0.009694636699139531	-0.241772081050762	0.02276230664794867	-0.005373671860573697	0.08129138496583443	-26.5934412700855	5.098450476037216	1.01197419060525	-1.869897346467179	-528.2041931246638	-40.36355894447262	-31.15123863875342	-0.04777948944835285	0.2457451328491412	-0.3794963109122906	-0.4399489658146581	0.4925576252083865	0.00435278268770597	0.8680593001719615	-1.097938270966113	-1.097938270966113	-0.04757050595946521	0.1387678276850597	-0.4125061026811864	0.3769723202101725	8.415025975820724e-08	8.765689137317509e-07	-2.355600053925133e-07	1.792514206386842e-07	6.161773653809122e-08	5.157368107366713e-07	9.728242309531739e-08
1.53	-0.1295034340541872	0.07546958715233375	0.8258952272470629	0.6065194349297798	-0.4339904031205458	-0.276742469457708	-0.1881834708261712	0.6519765538804967	0.6519765538804898	-0.1648135327692075	-0.1401141245418433	0.2163919676424451	0.0353873522163933	0.07622468115369728	0.0635752321941269	0.3020849861921663	-1.206373829072455	0.2820778204425164	-0.6176927834954682	0.3723894474714088	-1.755980723053552	-1.755980723053574	-0.01405590930343901	0.1366923590516814	-0.7304358825112197	-0.08722078184644728	-0.04673721360357797	0.05499826725341177	-0.009566153352659678	-0.2387215560403145	0.02521498692782338	-0.005826958503398734	0.0789741982835087	-25.70964035297365	5.056680277020115	1.114450827444616	-2.225246777563968	-526.0088199359886	-40.56380048185759	-31.89151544531514	-0.04921171716486858	0.2414208026266954	-0.4212578536807634	-0.3323035002040119	0.460384032879682	0.02540115762016478	0.8269013124862845	-0.9284290956856445	-0.9284290956887834	-0.0544205535777533	0.08041657958728456	-0.3455411101434811	0.3697166694210421	6.833123275555741e-08	9.303808310932606e-07	-1.53336869584489e-07	1.95827105977436e-07	4.273135680221421e-08	4.968453195450378e-07	9.065747781010819e-08
